<svg width="23" height="24" viewBox="0 0 23 24" fill="none" xmlns="http://www.w3.org/2000/svg">
<path d="M9.15208 9.62987L10.4458 12.2199C11.0208 11.1699 11.8929 10.3099 12.9375 9.73987L12.1996 6.44987L15.9275 2.55987C16.4833 1.96987 16.4833 0.999871 15.9275 0.437871C15.3717 -0.124129 14.4517 -0.148129 13.8958 0.437871L10.1679 4.32987L1.35125 2.20987L0 3.61987L7.12042 7.49987L3.3925 11.3999L1.01583 11.0499L0 12.1099L3.0475 13.8699L4.74375 17.0599L5.75 15.9999L5.42417 13.4999L9.15208 9.62987ZM15.8125 10.9999C18.2083 10.9999 20.125 12.9999 20.125 15.4999C20.125 16.3799 19.8854 17.2099 19.4638 17.8999L22.4154 20.9999L21.0833 22.3899L18.0933 19.3199C17.4321 19.7499 16.6462 19.9999 15.8125 19.9999C13.4167 19.9999 11.5 17.9999 11.5 15.4999C11.5 12.9999 13.4167 10.9999 15.8125 10.9999ZM15.8125 12.9999C15.1771 12.9999 14.5677 13.2633 14.1184 13.7321C13.6691 14.2009 13.4167 14.8368 13.4167 15.4999C13.4167 16.1629 13.6691 16.7988 14.1184 17.2676C14.5677 17.7365 15.1771 17.9999 15.8125 17.9999C16.4479 17.9999 17.0573 17.7365 17.5066 17.2676C17.9559 16.7988 18.2083 16.1629 18.2083 15.4999C18.2083 14.8368 17.9559 14.2009 17.5066 13.7321C17.0573 13.2633 16.4479 12.9999 15.8125 12.9999Z" fill="#007FFF"/>
</svg>
