<svg width="28" height="29" viewBox="0 0 28 29" fill="none" xmlns="http://www.w3.org/2000/svg">
<g clip-path="url(#clip0_45_543)">
<path d="M11.1417 11.735L12.7167 14.7566C13.4167 13.5316 14.4783 12.5283 15.75 11.8633L14.8517 8.02497L19.39 3.48664C20.0667 2.79831 20.0667 1.66664 19.39 1.01097C18.7133 0.355305 17.5933 0.327305 16.9167 1.01097L12.3783 5.55164L1.645 3.07831L0 4.7233L8.66833 9.24997L4.13 13.8L1.23667 13.3916L0 14.6283L3.71 16.6816L5.775 20.4033L7 19.1666L6.60333 16.25L11.1417 11.735ZM19.25 13.3333C22.1667 13.3333 24.5 15.6666 24.5 18.5833C24.5 19.61 24.2083 20.5783 23.695 21.3833L27.2883 25L25.6667 26.6216L22.0267 23.04C21.2217 23.5416 20.265 23.8333 19.25 23.8333C16.3333 23.8333 14 21.5 14 18.5833C14 15.6666 16.3333 13.3333 19.25 13.3333ZM19.25 15.6666C18.4765 15.6666 17.7346 15.9739 17.1876 16.5209C16.6406 17.0679 16.3333 17.8098 16.3333 18.5833C16.3333 19.3569 16.6406 20.0987 17.1876 20.6457C17.7346 21.1927 18.4765 21.5 19.25 21.5C20.0236 21.5 20.7654 21.1927 21.3124 20.6457C21.8594 20.0987 22.1667 19.3569 22.1667 18.5833C22.1667 17.8098 21.8594 17.0679 21.3124 16.5209C20.7654 15.9739 20.0236 15.6666 19.25 15.6666Z" fill="#2196F3"/>
</g>
<defs>
<clipPath id="clip0_45_543">
<rect width="28" height="28" fill="white" transform="translate(0 0.5)"/>
</clipPath>
</defs>
</svg>
