<svg width="34" height="34" viewBox="0 0 34 34" fill="none" xmlns="http://www.w3.org/2000/svg">
<path d="M7.08341 13.6214H26.9167V9.3714C26.9167 9.15418 26.8261 8.95443 26.6448 8.77215C26.4634 8.58987 26.2632 8.49921 26.0441 8.50015H7.95608C7.73792 8.50015 7.53769 8.59082 7.35541 8.77215C7.17314 8.95348 7.08247 9.15371 7.08341 9.37282V13.6214ZM7.95608 29.7501C7.30347 29.7501 6.759 29.532 6.32266 29.0956C5.88633 28.6593 5.66769 28.1148 5.66675 27.4622V9.3714C5.66675 8.71973 5.88539 8.17573 6.32266 7.7394C6.75994 7.30307 7.30442 7.08443 7.95608 7.08348H10.4622V3.92432H11.9879V7.08348H22.1227V3.92432H23.5394V7.08348H26.0455C26.6972 7.08348 27.2416 7.30212 27.6789 7.7394C28.1162 8.17668 28.3344 8.72115 28.3334 9.37282V16.8117C28.103 16.7267 27.8697 16.6635 27.6336 16.6219C27.3975 16.5803 27.1585 16.5421 26.9167 16.5071V15.0395H7.08341V27.4622C7.08341 27.6795 7.17408 27.8792 7.35541 28.0615C7.53675 28.2438 7.7365 28.3344 7.95466 28.3335H17.452C17.5266 28.5979 17.6215 28.844 17.7367 29.0716C17.852 29.2982 17.9724 29.5244 18.098 29.7501H7.95608ZM26.0455 31.1668C24.4673 31.1668 23.1281 30.6171 22.0278 29.5178C20.9285 28.4166 20.3788 27.0774 20.3788 25.5001C20.3788 23.9229 20.9285 22.5842 22.0278 21.4839C23.1272 20.3836 24.4659 19.8335 26.0441 19.8335C27.6223 19.8335 28.9615 20.3836 30.0617 21.4839C31.162 22.5842 31.7122 23.9229 31.7122 25.5001C31.7122 27.0774 31.162 28.4166 30.0617 29.5178C28.9615 30.619 27.6227 31.1687 26.0455 31.1668ZM28.3901 28.6196L29.1636 27.8461L26.5895 25.2706V21.4145H25.5001V25.7296L28.3901 28.6196Z" fill="#2196F3"/>
</svg>
