<svg width="32" height="32" viewBox="0 0 32 32" fill="none" xmlns="http://www.w3.org/2000/svg">
<g clip-path="url(#clip0_383_1452)">
<path d="M6.66683 14.6667H1.3335V29.3334H6.66683V14.6667Z" fill="#2196F3"/>
<path d="M21.3335 4.33335C22.2002 3.32002 23.5468 2.66669 24.9335 2.66669C27.4002 2.66669 29.3335 4.60002 29.3335 7.06669C29.3335 10.0934 25.4535 13.6 21.3335 17.3334C17.2135 13.5867 13.3335 10.08 13.3335 7.06669C13.3335 4.60002 15.2668 2.66669 17.7335 2.66669C19.1202 2.66669 20.4668 3.32002 21.3335 4.33335Z" fill="#2196F3"/>
<path d="M26.6668 22.6667H17.3335L14.5468 21.6934L14.9868 20.44L17.3335 21.3334H21.0935C21.9602 21.3334 22.6668 20.6267 22.6668 19.76C22.6668 19.1067 22.2535 18.52 21.6402 18.28L11.9602 14.6667H9.3335V26.6934L18.6668 29.3334L29.3468 25.3334C29.3335 23.8667 28.1468 22.6667 26.6668 22.6667Z" fill="#2196F3"/>
</g>
<defs>
<clipPath id="clip0_383_1452">
<rect width="32" height="32" fill="white"/>
</clipPath>
</defs>
</svg>
