<svg width="125" height="125" viewBox="0 0 125 125" fill="none" xmlns="http://www.w3.org/2000/svg">
<g filter="url(#filter0_bii_441_1575)">
<ellipse cx="61.8287" cy="61.8125" rx="61.8287" ry="61.8125" transform="matrix(0.999937 -0.0111792 0.0109229 0.99994 0 1.38245)" fill="#2196F3"/>
<ellipse cx="61.8287" cy="61.8125" rx="61.8287" ry="61.8125" transform="matrix(0.999937 -0.0111792 0.0109229 0.99994 0 1.38245)" fill="#2196F3"/>
<path d="M53.3084 54.14C53.5084 52.7533 53.8951 51.54 54.4684 50.5C55.0418 49.4467 55.7551 48.5733 56.6084 47.88C57.4751 47.1733 58.4618 46.6467 59.5684 46.3C60.6884 45.94 61.8884 45.76 63.1684 45.76C64.5018 45.76 65.7018 45.9533 66.7684 46.34C67.8484 46.7133 68.7684 47.24 69.5284 47.92C70.2884 48.5867 70.8684 49.3733 71.2684 50.28C71.6818 51.1867 71.8884 52.1667 71.8884 53.22C71.8884 54.14 71.7818 54.9533 71.5684 55.66C71.3684 56.3533 71.0751 56.96 70.6884 57.48C70.3018 58 69.8218 58.44 69.2484 58.8C68.6751 59.16 68.0284 59.46 67.3084 59.7C69.0418 60.2467 70.3351 61.08 71.1884 62.2C72.0418 63.32 72.4684 64.7267 72.4684 66.42C72.4684 67.86 72.2018 69.1333 71.6684 70.24C71.1351 71.3467 70.4151 72.28 69.5084 73.04C68.6018 73.7867 67.5484 74.3533 66.3484 74.74C65.1618 75.1267 63.9018 75.32 62.5684 75.32C61.1151 75.32 59.8484 75.1533 58.7684 74.82C57.6884 74.4867 56.7484 73.9933 55.9484 73.34C55.1484 72.6867 54.4684 71.8867 53.9084 70.94C53.3484 69.9933 52.8684 68.9 52.4684 67.66L54.6484 66.76C55.2218 66.52 55.7551 66.46 56.2484 66.58C56.7551 66.6867 57.1218 66.9533 57.3484 67.38C57.5884 67.8467 57.8484 68.3067 58.1284 68.76C58.4218 69.2133 58.7684 69.62 59.1684 69.98C59.5684 70.3267 60.0351 70.6133 60.5684 70.84C61.1151 71.0533 61.7618 71.16 62.5084 71.16C63.3484 71.16 64.0818 71.0267 64.7084 70.76C65.3351 70.48 65.8551 70.12 66.2684 69.68C66.6951 69.24 67.0084 68.7533 67.2084 68.22C67.4218 67.6733 67.5284 67.1267 67.5284 66.58C67.5284 65.8867 67.4551 65.26 67.3084 64.7C67.1618 64.1267 66.8551 63.64 66.3884 63.24C65.9218 62.84 65.2484 62.5267 64.3684 62.3C63.5018 62.0733 62.3351 61.96 60.8684 61.96V58.44C62.0818 58.4267 63.0884 58.3133 63.8884 58.1C64.6884 57.8867 65.3218 57.5933 65.7884 57.22C66.2684 56.8333 66.6018 56.3733 66.7884 55.84C66.9751 55.3067 67.0684 54.72 67.0684 54.08C67.0684 52.72 66.6884 51.6867 65.9284 50.98C65.1684 50.2733 64.1551 49.92 62.8884 49.92C62.3018 49.92 61.7618 50.0067 61.2684 50.18C60.7751 50.34 60.3284 50.5733 59.9284 50.88C59.5418 51.1733 59.2151 51.52 58.9484 51.92C58.6818 52.32 58.4818 52.76 58.3484 53.24C58.1218 53.8533 57.8218 54.26 57.4484 54.46C57.0884 54.66 56.5751 54.7067 55.9084 54.6L53.3084 54.14Z" fill="white"/>
<path d="M53.3084 54.14C53.5084 52.7533 53.8951 51.54 54.4684 50.5C55.0418 49.4467 55.7551 48.5733 56.6084 47.88C57.4751 47.1733 58.4618 46.6467 59.5684 46.3C60.6884 45.94 61.8884 45.76 63.1684 45.76C64.5018 45.76 65.7018 45.9533 66.7684 46.34C67.8484 46.7133 68.7684 47.24 69.5284 47.92C70.2884 48.5867 70.8684 49.3733 71.2684 50.28C71.6818 51.1867 71.8884 52.1667 71.8884 53.22C71.8884 54.14 71.7818 54.9533 71.5684 55.66C71.3684 56.3533 71.0751 56.96 70.6884 57.48C70.3018 58 69.8218 58.44 69.2484 58.8C68.6751 59.16 68.0284 59.46 67.3084 59.7C69.0418 60.2467 70.3351 61.08 71.1884 62.2C72.0418 63.32 72.4684 64.7267 72.4684 66.42C72.4684 67.86 72.2018 69.1333 71.6684 70.24C71.1351 71.3467 70.4151 72.28 69.5084 73.04C68.6018 73.7867 67.5484 74.3533 66.3484 74.74C65.1618 75.1267 63.9018 75.32 62.5684 75.32C61.1151 75.32 59.8484 75.1533 58.7684 74.82C57.6884 74.4867 56.7484 73.9933 55.9484 73.34C55.1484 72.6867 54.4684 71.8867 53.9084 70.94C53.3484 69.9933 52.8684 68.9 52.4684 67.66L54.6484 66.76C55.2218 66.52 55.7551 66.46 56.2484 66.58C56.7551 66.6867 57.1218 66.9533 57.3484 67.38C57.5884 67.8467 57.8484 68.3067 58.1284 68.76C58.4218 69.2133 58.7684 69.62 59.1684 69.98C59.5684 70.3267 60.0351 70.6133 60.5684 70.84C61.1151 71.0533 61.7618 71.16 62.5084 71.16C63.3484 71.16 64.0818 71.0267 64.7084 70.76C65.3351 70.48 65.8551 70.12 66.2684 69.68C66.6951 69.24 67.0084 68.7533 67.2084 68.22C67.4218 67.6733 67.5284 67.1267 67.5284 66.58C67.5284 65.8867 67.4551 65.26 67.3084 64.7C67.1618 64.1267 66.8551 63.64 66.3884 63.24C65.9218 62.84 65.2484 62.5267 64.3684 62.3C63.5018 62.0733 62.3351 61.96 60.8684 61.96V58.44C62.0818 58.4267 63.0884 58.3133 63.8884 58.1C64.6884 57.8867 65.3218 57.5933 65.7884 57.22C66.2684 56.8333 66.6018 56.3733 66.7884 55.84C66.9751 55.3067 67.0684 54.72 67.0684 54.08C67.0684 52.72 66.6884 51.6867 65.9284 50.98C65.1684 50.2733 64.1551 49.92 62.8884 49.92C62.3018 49.92 61.7618 50.0067 61.2684 50.18C60.7751 50.34 60.3284 50.5733 59.9284 50.88C59.5418 51.1733 59.2151 51.52 58.9484 51.92C58.6818 52.32 58.4818 52.76 58.3484 53.24C58.1218 53.8533 57.8218 54.26 57.4484 54.46C57.0884 54.66 56.5751 54.7067 55.9084 54.6L53.3084 54.14Z" fill="white"/>
</g>
<defs>
<filter id="filter0_bii_441_1575" x="-48" y="-48" width="221" height="221" filterUnits="userSpaceOnUse" color-interpolation-filters="sRGB">
<feFlood flood-opacity="0" result="BackgroundImageFix"/>
<feGaussianBlur in="BackgroundImageFix" stdDeviation="24"/>
<feComposite in2="SourceAlpha" operator="in" result="effect1_backgroundBlur_441_1575"/>
<feBlend mode="normal" in="SourceGraphic" in2="effect1_backgroundBlur_441_1575" result="shape"/>
<feColorMatrix in="SourceAlpha" type="matrix" values="0 0 0 0 0 0 0 0 0 0 0 0 0 0 0 0 0 0 127 0" result="hardAlpha"/>
<feOffset dy="4"/>
<feGaussianBlur stdDeviation="2"/>
<feComposite in2="hardAlpha" operator="arithmetic" k2="-1" k3="1"/>
<feColorMatrix type="matrix" values="0 0 0 0 1 0 0 0 0 1 0 0 0 0 1 0 0 0 0.15 0"/>
<feBlend mode="normal" in2="shape" result="effect2_innerShadow_441_1575"/>
<feColorMatrix in="SourceAlpha" type="matrix" values="0 0 0 0 0 0 0 0 0 0 0 0 0 0 0 0 0 0 127 0" result="hardAlpha"/>
<feOffset/>
<feGaussianBlur stdDeviation="34"/>
<feComposite in2="hardAlpha" operator="arithmetic" k2="-1" k3="1"/>
<feColorMatrix type="matrix" values="0 0 0 0 1 0 0 0 0 1 0 0 0 0 1 0 0 0 0.05 0"/>
<feBlend mode="normal" in2="effect2_innerShadow_441_1575" result="effect3_innerShadow_441_1575"/>
</filter>
</defs>
</svg>
