<svg width="27" height="32" viewBox="0 0 27 32" fill="none" xmlns="http://www.w3.org/2000/svg">
<g clip-path="url(#clip0_383_1436)">
<path d="M14.7679 19.4133L16.3767 17.5067L23.6217 26.0973L22.0163 28L14.7679 19.4133ZM19.5976 11.7733L22.8151 7.96C18.3713 2.69333 11.1713 2.68 6.72757 7.93333C11.1488 6.2 16.0763 7.6 19.5976 11.7733ZM6.69382 7.97333C2.26132 13.24 2.27257 21.7733 6.71632 27.04L9.93382 23.2267C6.41257 19.0533 5.23132 13.2133 6.69382 7.97333ZM6.71632 7.94666L6.70507 7.96C6.27757 11.9733 8.02132 17.1333 11.5426 21.32L17.9888 13.68C14.4676 9.50666 10.1026 7.44 6.71632 7.94666Z" fill="#2196F3"/>
</g>
<defs>
<clipPath id="clip0_383_1436">
<rect width="27" height="32" fill="white"/>
</clipPath>
</defs>
</svg>
