<svg width="25" height="25" viewBox="0 0 25 25" fill="none" xmlns="http://www.w3.org/2000/svg">
<g clip-path="url(#clip0_302_919)">
<path d="M24.4317 0.568025C24.9526 1.18356 25.0236 2.0595 24.6448 3.19587C24.266 4.33223 23.6268 5.35022 22.7272 6.24984L19.8685 9.10851L22.7094 21.4665C22.7686 21.6914 22.6976 21.8867 22.4964 22.0524L20.2236 23.7569C20.1408 23.828 20.0283 23.8635 19.8863 23.8635C19.8389 23.8635 19.7975 23.8576 19.762 23.8457C19.5844 23.8102 19.4601 23.7155 19.3891 23.5616L14.4353 14.5417L9.83655 19.1405L10.7776 22.5851C10.8368 22.7863 10.7894 22.9698 10.6356 23.1355L8.93101 24.84C8.82448 24.9466 8.68835 24.9998 8.52263 24.9998H8.48712C8.30956 24.9762 8.16752 24.8992 8.06098 24.769L4.70516 20.2946L0.230729 16.9388C0.100521 16.8559 0.0235794 16.7198 -9.48315e-05 16.5304C-0.011932 16.3765 0.0413351 16.2285 0.159706 16.0865L1.86425 14.3642C1.97079 14.2577 2.10691 14.2044 2.27263 14.2044C2.34366 14.2044 2.391 14.2103 2.41468 14.2221L5.85928 15.1632L10.458 10.5645L1.43812 5.61064C1.2724 5.51594 1.17178 5.3739 1.13627 5.1845C1.11259 4.99511 1.16586 4.83531 1.29607 4.7051L3.5688 2.43237C3.73452 2.27849 3.91207 2.23114 4.10147 2.29033L15.909 5.11348L18.7499 2.27257C19.6495 1.37295 20.6675 0.733745 21.8039 0.354957C22.9402 -0.0238308 23.8162 0.0471919 24.4317 0.568025Z" fill="#007FFF"/>
</g>
<defs>
<clipPath id="clip0_302_919">
<rect width="25" height="25" fill="white"/>
</clipPath>
</defs>
</svg>
