<svg width="21" height="27" viewBox="0 0 21 27" fill="none" xmlns="http://www.w3.org/2000/svg">
<path d="M8.75 5.33333H11.6667V2.66667H8.75V5.33333ZM10.2083 13.3333C8.36111 13.3333 6.59896 12.9833 4.92187 12.2833C3.24479 11.5833 1.60417 10.8 0 9.93333V8C0 7.26667 0.28559 6.63889 0.856771 6.11667C1.42795 5.59444 2.11458 5.33333 2.91667 5.33333H5.83333V1.33333C5.83333 0.955555 5.97309 0.638889 6.2526 0.383333C6.53212 0.127778 6.87847 0 7.29167 0H13.125C13.5382 0 13.8845 0.127778 14.1641 0.383333C14.4436 0.638889 14.5833 0.955555 14.5833 1.33333V5.33333H17.5C18.3021 5.33333 18.9887 5.59444 19.5599 6.11667C20.1311 6.63889 20.4167 7.26667 20.4167 8V9.93333C18.8125 10.8 17.1719 11.5833 15.4948 12.2833C13.8177 12.9833 12.0556 13.3333 10.2083 13.3333ZM2.91667 25.3333C2.11458 25.3333 1.42795 25.0722 0.856771 24.55C0.28559 24.0278 0 23.4 0 22.6667V12.9333C1.36111 13.6889 2.76476 14.3333 4.21094 14.8667C5.65712 15.4 7.17014 15.7556 8.75 15.9333V16C8.75 16.3778 8.88976 16.6944 9.16927 16.95C9.44878 17.2056 9.79514 17.3333 10.2083 17.3333C10.6215 17.3333 10.9679 17.2056 11.2474 16.95C11.5269 16.6944 11.6667 16.3778 11.6667 16V15.9333C13.2465 15.7556 14.7595 15.4 16.2057 14.8667C17.6519 14.3333 19.0556 13.6889 20.4167 12.9333V22.6667C20.4167 23.4 20.1311 24.0278 19.5599 24.55C18.9887 25.0722 18.3021 25.3333 17.5 25.3333C17.5 25.7111 17.3602 26.0278 17.0807 26.2833C16.8012 26.5389 16.4549 26.6667 16.0417 26.6667C15.6528 26.6667 15.3793 26.5056 15.2214 26.1833C15.0634 25.8611 14.8507 25.5778 14.5833 25.3333H5.83333C5.83333 25.7111 5.69358 26.0278 5.41406 26.2833C5.13455 26.5389 4.78819 26.6667 4.375 26.6667C3.98611 26.6667 3.71267 26.5056 3.55469 26.1833C3.3967 25.8611 3.18403 25.5778 2.91667 25.3333Z" fill="#2196F3"/>
</svg>
