<svg width="32" height="32" viewBox="0 0 32 32" fill="none" xmlns="http://www.w3.org/2000/svg">
<path d="M23.4002 12.2333L28.1002 7.49998C28.3668 7.23331 28.6837 7.09998 29.0508 7.09998C29.4179 7.09998 29.7344 7.23331 30.0002 7.49998C30.2659 7.76665 30.3993 8.08353 30.4002 8.45065C30.4011 8.81776 30.2677 9.1342 30.0002 9.39998L24.3335 15.0666C24.0668 15.3333 23.7557 15.4666 23.4002 15.4666C23.0446 15.4666 22.7335 15.3333 22.4668 15.0666L19.6335 12.2333C19.3668 11.9666 19.2335 11.6502 19.2335 11.284C19.2335 10.9178 19.3668 10.6009 19.6335 10.3333C19.9002 10.0658 20.2113 9.93242 20.5668 9.93331C20.9224 9.9342 21.2335 10.0675 21.5002 10.3333L23.4002 12.2333ZM12.0002 16C10.5335 16 9.27794 15.4778 8.2335 14.4333C7.18905 13.3889 6.66683 12.1333 6.66683 10.6666C6.66683 9.19998 7.18905 7.94442 8.2335 6.89998C9.27794 5.85554 10.5335 5.33331 12.0002 5.33331C13.4668 5.33331 14.7224 5.85554 15.7668 6.89998C16.8113 7.94442 17.3335 9.19998 17.3335 10.6666C17.3335 12.1333 16.8113 13.3889 15.7668 14.4333C14.7224 15.4778 13.4668 16 12.0002 16ZM1.3335 24V22.9333C1.3335 22.1778 1.52816 21.4835 1.9175 20.8506C2.30683 20.2178 2.82327 19.7342 3.46683 19.4C4.84461 18.7111 6.24461 18.1946 7.66683 17.8506C9.08905 17.5066 10.5335 17.3342 12.0002 17.3333C13.4668 17.3324 14.9113 17.5049 16.3335 17.8506C17.7557 18.1964 19.1557 18.7129 20.5335 19.4C21.1779 19.7333 21.6948 20.2169 22.0842 20.8506C22.4735 21.4844 22.6677 22.1786 22.6668 22.9333V24C22.6668 24.7333 22.4059 25.3613 21.8842 25.884C21.3624 26.4066 20.7344 26.6675 20.0002 26.6666H4.00016C3.26683 26.6666 2.63927 26.4058 2.1175 25.884C1.59572 25.3622 1.33438 24.7342 1.3335 24Z" fill="#2196F3"/>
</svg>
