<svg width="25" height="25" viewBox="0 0 25 25" fill="none" xmlns="http://www.w3.org/2000/svg">
<g clip-path="url(#clip0_383_1463)">
<path d="M24.432 0.568208C24.9528 1.18374 25.0238 2.05969 24.645 3.19605C24.2662 4.33241 23.627 5.35041 22.7274 6.25003L19.8688 9.10869L22.7097 21.4666C22.7689 21.6915 22.6978 21.8869 22.4966 22.0526L20.2239 23.7571C20.141 23.8281 20.0286 23.8637 19.8865 23.8637C19.8392 23.8637 19.7977 23.8577 19.7622 23.8459C19.5847 23.8104 19.4604 23.7157 19.3894 23.5618L14.4355 14.5419L9.8368 19.1406L10.7778 22.5853C10.837 22.7865 10.7897 22.97 10.6358 23.1357L8.93126 24.8402C8.82472 24.9468 8.6886 25 8.52288 25H8.48736C8.30981 24.9764 8.16776 24.8994 8.06123 24.7692L4.7054 20.2948L0.230973 16.9389C0.100765 16.8561 0.0238236 16.72 0.000149309 16.5306C-0.0116878 16.3767 0.0415792 16.2287 0.15995 16.0867L1.8645 14.3644C1.97103 14.2578 2.10716 14.2046 2.27288 14.2046C2.3439 14.2046 2.39125 14.2105 2.41492 14.2223L5.85952 15.1634L10.4582 10.5647L1.43836 5.61082C1.27264 5.51613 1.17202 5.37408 1.13651 5.18469C1.11284 4.99529 1.16611 4.83549 1.29631 4.70528L3.56904 2.43255C3.73476 2.27867 3.91232 2.23132 4.10171 2.29051L15.9092 5.11366L18.7501 2.27275C19.6498 1.37313 20.6678 0.733928 21.8041 0.35514C22.9405 -0.0236477 23.8164 0.0473751 24.432 0.568208Z" fill="#2196F3"/>
</g>
<defs>
<clipPath id="clip0_383_1463">
<rect width="25" height="25" fill="white"/>
</clipPath>
</defs>
</svg>
