<svg width="32" height="32" viewBox="0 0 32 32" fill="none" xmlns="http://www.w3.org/2000/svg">
<g clip-path="url(#clip0_383_1455)">
<path d="M14.6665 18V2.66665L3.99984 18H14.6665ZM27.9998 18C27.9998 8.66665 19.3332 1.33331 16.6665 1.33331C16.6665 1.33331 17.9998 5.33331 17.9998 9.99998C17.9998 14.6666 16.6665 18 16.6665 18H27.9998ZM29.3332 20H2.6665C3.07984 22.04 4.21317 23.7866 5.77317 24.9733C6.63984 24.6133 7.39984 24.0133 7.99984 23.3333C8.97317 24.4533 10.3998 25.3333 11.9998 25.3333C13.5998 25.3333 15.0265 24.4533 15.9998 23.3333C16.9732 24.4533 18.3998 25.3333 19.9998 25.3333C21.5998 25.3333 23.0132 24.4533 23.9998 23.3333C24.5998 24.0133 25.3598 24.6133 26.2265 24.9733C27.7865 23.7866 28.9198 22.04 29.3332 20ZM29.3332 30.6666V28H27.9998C26.6132 28 25.2265 27.5333 23.9998 26.6666C21.5598 28.4 18.4398 28.4 15.9998 26.6666C13.5598 28.4 10.4398 28.4 7.99984 26.6666C6.7865 27.5333 5.3865 28 3.99984 28H2.6665V30.6666H3.99984C5.37317 30.6666 6.73317 30.3333 7.99984 29.6666C10.5198 31 13.4798 31 15.9998 29.6666C18.5198 31 21.4798 31 23.9998 29.6666C25.2665 30.3333 26.6265 30.6666 27.9998 30.6666H29.3332Z" fill="#2196F3"/>
</g>
<defs>
<clipPath id="clip0_383_1455">
<rect width="32" height="32" fill="white"/>
</clipPath>
</defs>
</svg>
