<svg width="32" height="32" viewBox="0 0 32 32" fill="none" xmlns="http://www.w3.org/2000/svg">
<path d="M15.9998 29.3333C14.1554 29.3333 12.4221 28.9831 10.7998 28.2827C9.17762 27.5822 7.76651 26.6324 6.56651 25.4333C5.36651 24.2342 4.41673 22.8231 3.71717 21.2C3.01762 19.5769 2.66739 17.8435 2.66651 16C2.66562 14.1564 3.01584 12.4231 3.71717 10.8C4.41851 9.17688 5.36828 7.76577 6.56651 6.56666C7.76473 5.36755 9.17584 4.41777 10.7998 3.71732C12.4238 3.01688 14.1572 2.66666 15.9998 2.66666C19.2443 2.66666 22.0834 3.68355 24.5172 5.71732C26.951 7.7511 28.4674 10.3009 29.0665 13.3667H26.3332C25.911 11.7444 25.1496 10.2947 24.0492 9.01732C22.9487 7.73999 21.5989 6.77866 19.9998 6.13332V6.66666C19.9998 7.39999 19.739 8.02799 19.2172 8.55066C18.6954 9.07332 18.0674 9.33421 17.3332 9.33332H14.6665V12C14.6665 12.3778 14.5385 12.6947 14.2825 12.9507C14.0265 13.2067 13.7101 13.3342 13.3332 13.3333H10.6665V16H13.3332V20H11.9998L5.59984 13.6C5.53317 14 5.47228 14.4 5.41717 14.8C5.36206 15.2 5.33406 15.6 5.33317 16C5.33317 18.9111 6.3554 21.4111 8.39984 23.5C10.4443 25.5889 12.9776 26.6444 15.9998 26.6667V29.3333ZM28.1332 28.6667L23.8665 24.4C23.3998 24.6667 22.8998 24.8889 22.3665 25.0667C21.8332 25.2444 21.2665 25.3333 20.6665 25.3333C18.9998 25.3333 17.5834 24.7502 16.4172 23.584C15.2509 22.4178 14.6674 21.0009 14.6665 19.3333C14.6656 17.6658 15.2492 16.2493 16.4172 15.084C17.5852 13.9187 19.0016 13.3351 20.6665 13.3333C22.3314 13.3315 23.7483 13.9151 24.9172 15.084C26.0861 16.2529 26.6692 17.6693 26.6665 19.3333C26.6665 19.9333 26.5776 20.5 26.3998 21.0333C26.2221 21.5667 25.9998 22.0667 25.7332 22.5333L29.9998 26.8L28.1332 28.6667ZM20.6665 22.6667C21.5998 22.6667 22.3887 22.3444 23.0332 21.7C23.6776 21.0555 23.9998 20.2667 23.9998 19.3333C23.9998 18.4 23.6776 17.6111 23.0332 16.9667C22.3887 16.3222 21.5998 16 20.6665 16C19.7332 16 18.9443 16.3222 18.2998 16.9667C17.6554 17.6111 17.3332 18.4 17.3332 19.3333C17.3332 20.2667 17.6554 21.0555 18.2998 21.7C18.9443 22.3444 19.7332 22.6667 20.6665 22.6667Z" fill="#2196F3"/>
</svg>
