<svg width="24" height="24" viewBox="0 0 24 24" fill="none" xmlns="http://www.w3.org/2000/svg">
<path d="M5 9.61453H19V6.61453C19 6.4612 18.936 6.3202 18.808 6.19153C18.68 6.06286 18.5387 5.99886 18.384 5.99953H5.616C5.462 5.99953 5.32067 6.06353 5.192 6.19153C5.06333 6.31953 4.99933 6.46086 5 6.61553V9.61453ZM5.616 20.9995C5.15533 20.9995 4.771 20.8455 4.463 20.5375C4.155 20.2295 4.00067 19.8452 4 19.3845V6.61453C4 6.15453 4.15433 5.77053 4.463 5.46253C4.77167 5.15453 5.156 5.0002 5.616 4.99953H7.385V2.76953H8.462V4.99953H15.616V2.76953H16.616V4.99953H18.385C18.845 4.99953 19.2293 5.15386 19.538 5.46253C19.8467 5.7712 20.0007 6.15553 20 6.61553V11.8665C19.8373 11.8065 19.6727 11.7619 19.506 11.7325C19.3393 11.7032 19.1707 11.6762 19 11.6515V10.6155H5V19.3845C5 19.5379 5.064 19.6789 5.192 19.8075C5.32 19.9362 5.461 20.0002 5.615 19.9995H12.319C12.3717 20.1862 12.4387 20.3599 12.52 20.5205C12.6013 20.6805 12.6863 20.8402 12.775 20.9995H5.616ZM18.385 21.9995C17.271 21.9995 16.3257 21.6115 15.549 20.8355C14.773 20.0582 14.385 19.1129 14.385 17.9995C14.385 16.8862 14.773 15.9412 15.549 15.1645C16.325 14.3879 17.27 13.9995 18.384 13.9995C19.498 13.9995 20.4433 14.3879 21.22 15.1645C21.9967 15.9412 22.385 16.8862 22.385 17.9995C22.385 19.1129 21.9967 20.0582 21.22 20.8355C20.4433 21.6129 19.4983 22.0009 18.385 21.9995ZM20.04 20.2015L20.586 19.6555L18.769 17.8375V15.1155H18V18.1615L20.04 20.2015Z" fill="black"/>
</svg>
