<svg width="125" height="125" viewBox="0 0 125 125" fill="none" xmlns="http://www.w3.org/2000/svg">
<g filter="url(#filter0_bii_441_1571)">
<ellipse cx="61.8287" cy="61.8125" rx="61.8287" ry="61.8125" transform="matrix(0.999937 -0.0111792 0.0109229 0.99994 0 1.38245)" fill="#2196F3"/>
<ellipse cx="61.8287" cy="61.8125" rx="61.8287" ry="61.8125" transform="matrix(0.999937 -0.0111792 0.0109229 0.99994 0 1.38245)" fill="#2196F3"/>
<path d="M70.7684 70.4C71.3018 70.4 71.7218 70.5533 72.0284 70.86C72.3484 71.1533 72.5084 71.5467 72.5084 72.04V75H52.6684V73.36C52.6684 73.0267 52.7351 72.68 52.8684 72.32C53.0151 71.9467 53.2418 71.6133 53.5484 71.32L62.3284 62.52C63.0618 61.7733 63.7151 61.06 64.2884 60.38C64.8751 59.7 65.3618 59.0267 65.7484 58.36C66.1351 57.6933 66.4284 57.02 66.6284 56.34C66.8418 55.6467 66.9484 54.92 66.9484 54.16C66.9484 53.4667 66.8484 52.86 66.6484 52.34C66.4484 51.8067 66.1618 51.36 65.7884 51C65.4284 50.64 64.9884 50.3733 64.4684 50.2C63.9618 50.0133 63.3884 49.92 62.7484 49.92C62.1618 49.92 61.6151 50.0067 61.1084 50.18C60.6151 50.34 60.1751 50.5733 59.7884 50.88C59.4018 51.1733 59.0751 51.52 58.8084 51.92C58.5418 52.32 58.3418 52.76 58.2084 53.24C57.9818 53.8533 57.6884 54.26 57.3284 54.46C56.9684 54.66 56.4484 54.7067 55.7684 54.6L53.1684 54.14C53.3684 52.7533 53.7551 51.54 54.3284 50.5C54.9018 49.4467 55.6151 48.5733 56.4684 47.88C57.3351 47.1733 58.3218 46.6467 59.4284 46.3C60.5484 45.94 61.7484 45.76 63.0284 45.76C64.3618 45.76 65.5818 45.96 66.6884 46.36C67.7951 46.7467 68.7418 47.3 69.5284 48.02C70.3151 48.74 70.9284 49.6067 71.3684 50.62C71.8084 51.6333 72.0284 52.76 72.0284 54C72.0284 55.0667 71.8684 56.0533 71.5484 56.96C71.2418 57.8667 70.8218 58.7333 70.2884 59.56C69.7684 60.3867 69.1551 61.1867 68.4484 61.96C67.7418 62.7333 67.0018 63.52 66.2284 64.32L59.7084 70.98C60.3351 70.7933 60.9551 70.6533 61.5684 70.56C62.1951 70.4533 62.7884 70.4 63.3484 70.4H70.7684Z" fill="white"/>
<path d="M70.7684 70.4C71.3018 70.4 71.7218 70.5533 72.0284 70.86C72.3484 71.1533 72.5084 71.5467 72.5084 72.04V75H52.6684V73.36C52.6684 73.0267 52.7351 72.68 52.8684 72.32C53.0151 71.9467 53.2418 71.6133 53.5484 71.32L62.3284 62.52C63.0618 61.7733 63.7151 61.06 64.2884 60.38C64.8751 59.7 65.3618 59.0267 65.7484 58.36C66.1351 57.6933 66.4284 57.02 66.6284 56.34C66.8418 55.6467 66.9484 54.92 66.9484 54.16C66.9484 53.4667 66.8484 52.86 66.6484 52.34C66.4484 51.8067 66.1618 51.36 65.7884 51C65.4284 50.64 64.9884 50.3733 64.4684 50.2C63.9618 50.0133 63.3884 49.92 62.7484 49.92C62.1618 49.92 61.6151 50.0067 61.1084 50.18C60.6151 50.34 60.1751 50.5733 59.7884 50.88C59.4018 51.1733 59.0751 51.52 58.8084 51.92C58.5418 52.32 58.3418 52.76 58.2084 53.24C57.9818 53.8533 57.6884 54.26 57.3284 54.46C56.9684 54.66 56.4484 54.7067 55.7684 54.6L53.1684 54.14C53.3684 52.7533 53.7551 51.54 54.3284 50.5C54.9018 49.4467 55.6151 48.5733 56.4684 47.88C57.3351 47.1733 58.3218 46.6467 59.4284 46.3C60.5484 45.94 61.7484 45.76 63.0284 45.76C64.3618 45.76 65.5818 45.96 66.6884 46.36C67.7951 46.7467 68.7418 47.3 69.5284 48.02C70.3151 48.74 70.9284 49.6067 71.3684 50.62C71.8084 51.6333 72.0284 52.76 72.0284 54C72.0284 55.0667 71.8684 56.0533 71.5484 56.96C71.2418 57.8667 70.8218 58.7333 70.2884 59.56C69.7684 60.3867 69.1551 61.1867 68.4484 61.96C67.7418 62.7333 67.0018 63.52 66.2284 64.32L59.7084 70.98C60.3351 70.7933 60.9551 70.6533 61.5684 70.56C62.1951 70.4533 62.7884 70.4 63.3484 70.4H70.7684Z" fill="white"/>
</g>
<defs>
<filter id="filter0_bii_441_1571" x="-48" y="-48" width="221" height="221" filterUnits="userSpaceOnUse" color-interpolation-filters="sRGB">
<feFlood flood-opacity="0" result="BackgroundImageFix"/>
<feGaussianBlur in="BackgroundImageFix" stdDeviation="24"/>
<feComposite in2="SourceAlpha" operator="in" result="effect1_backgroundBlur_441_1571"/>
<feBlend mode="normal" in="SourceGraphic" in2="effect1_backgroundBlur_441_1571" result="shape"/>
<feColorMatrix in="SourceAlpha" type="matrix" values="0 0 0 0 0 0 0 0 0 0 0 0 0 0 0 0 0 0 127 0" result="hardAlpha"/>
<feOffset dy="4"/>
<feGaussianBlur stdDeviation="2"/>
<feComposite in2="hardAlpha" operator="arithmetic" k2="-1" k3="1"/>
<feColorMatrix type="matrix" values="0 0 0 0 1 0 0 0 0 1 0 0 0 0 1 0 0 0 0.15 0"/>
<feBlend mode="normal" in2="shape" result="effect2_innerShadow_441_1571"/>
<feColorMatrix in="SourceAlpha" type="matrix" values="0 0 0 0 0 0 0 0 0 0 0 0 0 0 0 0 0 0 127 0" result="hardAlpha"/>
<feOffset/>
<feGaussianBlur stdDeviation="34"/>
<feComposite in2="hardAlpha" operator="arithmetic" k2="-1" k3="1"/>
<feColorMatrix type="matrix" values="0 0 0 0 1 0 0 0 0 1 0 0 0 0 1 0 0 0 0.05 0"/>
<feBlend mode="normal" in2="effect2_innerShadow_441_1571" result="effect3_innerShadow_441_1571"/>
</filter>
</defs>
</svg>
