<svg width="27" height="32" viewBox="0 0 27 32" fill="none" xmlns="http://www.w3.org/2000/svg">
<g clip-path="url(#clip0_383_1430)">
<path d="M14.625 10.6667C14.625 7.72001 12.6112 5.33334 10.125 5.33334C7.63875 5.33334 5.625 7.72001 5.625 10.6667C5.625 13.6133 7.63875 16 10.125 16C12.6112 16 14.625 13.6133 14.625 10.6667ZM16.875 13.3333V16H20.25V20H22.5V16H25.875V13.3333H22.5V9.33334H20.25V13.3333H16.875ZM1.125 24V26.6667H19.125V24C19.125 20.4533 13.1287 18.6667 10.125 18.6667C7.12125 18.6667 1.125 20.4533 1.125 24Z" fill="#2196F3"/>
</g>
<defs>
<clipPath id="clip0_383_1430">
<rect width="27" height="32" fill="white"/>
</clipPath>
</defs>
</svg>
